<?xml version="1.0" encoding="UTF-8" standalone="no" ?>
<!DOCTYPE svg PUBLIC "-//W3C//DTD SVG 1.1//EN" "http://www.w3.org/Graphics/SVG/1.1/DTD/svg11.dtd">
<svg xmlns="http://www.w3.org/2000/svg" xmlns:xlink="http://www.w3.org/1999/xlink" version="1.1" width="500" height="500" viewBox="0 0 500 500" xml:space="preserve">
<desc>Created with Fabric.js 5.3.0</desc>
<defs>
</defs>
<g transform="matrix(0.9804666504 0 0 0.9190081532 183.1326156514 258.1139601694)" id="ItqUIb5exsk8yJ3c924eK"  >
<path style="stroke: rgb(255,255,255); stroke-width: 0; stroke-dasharray: none; stroke-linecap: butt; stroke-dashoffset: 0; stroke-linejoin: miter; stroke-miterlimit: 4; fill: rgb(0,0,0); fill-rule: nonzero; opacity: 1;"  transform=" translate(-32.76645, -64.33121)" d="M 0 0 L 0.00033 0 C 0.10973999999999999 42.74188 27.42526 79.12742 65.53290000000001 92.7426 L 65.53290000000001 128.66242 L 1.4210854715202004e-14 128.66242 z" stroke-linecap="round" />
</g>
<g transform="matrix(0.9644913946 0 0 0.850363473 251.9313212346 302.1378413854)" id="WYL0A-kVG5cZ_diqSYWtX"  >
<path style="stroke: rgb(0,0,0); stroke-width: 2; stroke-dasharray: none; stroke-linecap: butt; stroke-dashoffset: 0; stroke-linejoin: miter; stroke-miterlimit: 4; fill: none; fill-rule: nonzero; opacity: 1;"  transform=" translate(-32.76645, -17.62647)" d="M 65.5329 35.25294 L 0 35.25294 L 0 0 C 10.25434 3.61033 21.28242 5.5744 32.76645 5.5744 C 44.250479999999996 5.5744 55.27856 3.61033 65.5329 0 z" stroke-linecap="round" />
</g>
<g transform="matrix(1 0 0 1 250.3788995546 187.1560953955)" id="NrmyA9k5bpeUc6ttNFeJ8"  >
<path style="stroke: none; stroke-width: 0; stroke-dasharray: none; stroke-linecap: butt; stroke-dashoffset: 0; stroke-linejoin: miter; stroke-miterlimit: 4; fill: rgb(0,0,0); fill-rule: nonzero; opacity: 1;"  transform=" translate(-98.614905, -99.142485)" d="M 137.74327 116.08576 C 136.33462 118.25488999999999 133.43426 118.87137999999999 131.26513 117.46273 C 130.22348 116.78626999999999 129.49321 115.72372999999999 129.23498 114.50883999999999 C 128.97675 113.29395 129.2117 112.02624999999999 129.88816 110.98459 C 130.56462 109.94294 131.62716 109.21267 132.84205 108.95443999999999 C 134.05694 108.69621 135.32464 108.93115999999999 136.3663 109.60762 C 138.53543 111.01626999999999 139.15192 113.91663 137.74327 116.08576 z M 143.7268 103.38721 C 141.81126 106.33689 137.86722 107.17522 134.91754 105.25968 C 133.50105 104.3398 132.508 102.8949 132.15684 101.24284 C 131.80568 99.59078 132.12518999999998 97.86689 133.04506999999998 96.4504 C 133.96495 95.03391 135.40984999999998 94.04086000000001 137.06190999999998 93.6897 C 138.71397 93.33854000000001 140.43785999999997 93.65805 141.85434999999998 94.57793 C 144.80402999999998 96.49347 145.64236 100.43750999999999 143.72681999999998 103.38718999999999 z M 144.02309 83.93373 C 141.45544 87.88756 136.16873999999999 89.01128 132.21491 86.44364 C 130.31621 85.21061 128.98510000000002 83.27383 128.5144 81.05937 C 128.0437 78.84491 128.47198 76.53415 129.70499999999998 74.63546 C 130.93803 72.73675999999999 132.87481 71.40565 135.08926999999997 70.93495 C 137.30372999999997 70.46425 139.61448999999996 70.89253 141.51317999999998 72.12555 C 145.46701 74.6932 146.59072999999998 79.9799 144.02308999999997 83.93373 z M 141.4657 62.43191 C 137.74903 68.15508 130.09652 69.78167 124.37335 66.065 C 121.62498000000001 64.28019 119.6982 61.476699999999994 119.01687 58.27126 C 118.33552999999999 55.06583 118.95545 51.72101 120.74025999999999 48.97265 C 122.52506999999999 46.22428 125.32856 44.2975 128.534 43.616170000000004 C 131.73943 42.934830000000005 135.08425 43.554750000000006 137.83261 45.339560000000006 C 143.55578 49.056230000000006 145.18237 56.708740000000006 141.4657 62.43191 z M 116.62064 45.10233 C 112.23057 51.86245 103.19153999999999 53.78376 96.43142 49.39368 C 93.18509 47.28549 90.90921 43.974050000000005 90.10442 40.18784 C 89.29964000000001 36.40162 90.03188 32.45079 92.14007000000001 29.20446 C 94.24826 25.95813 97.5597 23.68225 101.34591 22.87746 C 105.13213 22.07268 109.08296 22.80492 112.32929 24.91311 C 119.08941 29.303179999999998 121.01072 38.34221 116.62064 45.102329999999995 z M 82.19718 46.37813 C 77.1025 54.223259999999996 66.61271 56.452929999999995 58.76758 51.358239999999995 C 55.00021 48.91168 52.35905 45.068749999999994 51.425090000000004 40.67484999999999 C 50.49114 36.28094999999999 51.340900000000005 31.695989999999995 53.78746 27.92862999999999 C 56.23402 24.16125999999999 60.076950000000004 21.520099999999992 64.47085 20.586139999999993 C 68.86475 19.652189999999994 73.44971 20.501949999999994 77.21706999999999 22.94850999999999 C 85.06219999999999 28.043189999999992 87.29186999999999 38.532979999999995 82.19717999999999 46.37810999999999 z M 128.23794 125.3408 C 127.20019 126.93879 125.06351000000001 127.39295 123.46552000000001 126.35521 C 122.69814000000001 125.85687 122.16015000000002 125.07409 121.96992000000002 124.17909 C 121.77968000000001 123.28409 121.95277000000002 122.35017 122.45112000000002 121.58279 C 122.94946000000002 120.81541 123.73224000000002 120.27742 124.62724000000001 120.08719 C 125.52224000000001 119.89695 126.45616000000001 120.07004 127.22354000000001 120.56839000000001 C 128.82153000000002 121.60614000000001 129.27569000000003 123.74282000000001 128.23795 125.34081 z M 7.88948 124.58353 C 8.90689 123.87113 10.16562 123.59208 11.38879 123.80775 C 12.61195 124.02343 13.69933 124.71616 14.41173 125.73357 C 15.124130000000001 126.75098 15.40318 128.00971 15.18751 129.23288 C 14.971829999999999 130.45604 14.2791 131.54342 13.26169 132.25582 C 11.14304 133.73931 8.22294 133.22442 6.73945 131.10577 C 5.25596 128.98712 5.770849999999999 126.06702000000001 7.8895 124.58353000000001 z M 9.68108 119.20514 C 6.25413 119.99631 2.8346799999999996 117.8596 2.0435 114.43265 C 1.66356 112.78697 1.9529299999999998 111.05776 2.84795 109.62544 C 3.74297 108.19311 5.170310000000001 107.175 6.815989999999999 106.79505999999999 C 8.46167 106.41511999999999 10.19088 106.70448999999999 11.6232 107.59951 C 13.055530000000001 108.49453 14.073640000000001 109.92187 14.45358 111.56755 C 15.24475 114.9945 13.10804 118.41395 9.681090000000001 119.20513 z M 3.64076 87.91856 C 5.49526 86.62002 7.78967 86.11137 10.019200000000001 86.50449 C 12.248740000000002 86.89762 14.230790000000002 88.16032 15.529340000000001 90.01483 C 16.82788 91.86933 17.33653 94.16374 16.94341 96.39327 C 16.55028 98.62281 15.28758 100.60486 13.43307 101.90341000000001 C 9.57126 104.60748000000001 4.248560000000001 103.66894 1.5444900000000015 99.80713 C -1.1595799999999987 95.94532 -0.22103999999999857 90.62262 3.6407700000000016 87.91855 z M 10.16932 61.61781 C 12.853720000000001 59.73817 16.174870000000002 59.0019 19.40212 59.570949999999996 C 22.62939 60.13999999999999 25.49841 61.967769999999994 27.37805 64.65217 C 29.25769 67.33657 29.99396 70.65772 29.42491 73.88497 C 28.85586 77.11224 27.02809 79.98125999999999 24.343690000000002 81.8609 C 18.75371 85.77504 11.049100000000003 84.41651 7.134960000000003 78.82654 C 3.220820000000003 73.23656 4.579350000000003 65.53195 10.169320000000003 61.61780999999999 z M 25.4769 33.46566 C 28.64767 31.24546 32.57055 30.37578 36.38255 31.04794 C 40.19455 31.720100000000002 43.583400000000005 33.87903 45.8036 37.04981 C 48.0238 40.22058 48.893480000000004 44.143460000000005 48.221320000000006 47.95546 C 47.54916000000001 51.76746 45.39023 55.156310000000005 42.21945000000001 57.37651 C 35.61666000000001 61.99983 26.51608000000001 60.395160000000004 21.89276000000001 53.792370000000005 C 17.26944000000001 47.18958000000001 18.87411000000001 38.089000000000006 25.47690000000001 33.465680000000006 z M 13.46838 138.56238 C 14.2179 138.03755999999998 15.14521 137.83198 16.04631 137.99087 C 16.947409999999998 138.14976000000001 17.748479999999997 138.6601 18.2733 139.40962 C 18.798119999999997 140.15913999999998 19.0037 141.08644999999999 18.84481 141.98755 C 18.68592 142.88865 18.17558 143.68972 17.42606 144.21454 C 15.86526 145.30742 13.71403 144.9281 12.62115 143.3673 C 11.52827 141.8065 11.90759 139.65527 13.46839 138.56239 z M 114.08406 59.15994 C 116.25318999999999 60.56859 116.86967999999999 63.46895 115.46103 65.63808 C 114.78456999999999 66.67973 113.72202999999999 67.41 112.50713999999999 67.66823000000001 C 111.29225 67.92646 110.02454999999999 67.69151000000001 108.98289 67.01505 C 107.94124 66.33859 107.21097 65.27605 106.95273999999999 64.06116 C 106.69451 62.846270000000004 106.92945999999999 61.57857 107.60592 60.53691 C 109.01456999999999 58.367779999999996 111.91493 57.75129 114.08406 59.15994 z M 101.38551 54.17641 C 104.33519 56.09195 105.17352 60.03599 103.25798 62.98567 C 102.3381 64.40216 100.89320000000001 65.39520999999999 99.24114 65.74637 C 97.58908 66.09752999999999 95.86519 65.77802 94.4487 64.85814 C 93.03221 63.93826000000001 92.03916000000001 62.49336 91.688 60.841300000000004 C 91.33684000000001 59.189240000000005 91.65635 57.46535 92.57623 56.048860000000005 C 94.49177 53.099180000000004 98.43580999999999 52.260850000000005 101.38548999999999 54.176390000000005 z M 81.93202 55.88012 C 85.88584999999999 58.44777 87.00957 63.73447 84.44193 67.6883 C 83.2089 69.587 81.27212 70.91811 79.05766 71.38880999999999 C 76.8432 71.85950999999999 74.53244 71.43123 72.63374999999999 70.19820999999999 C 70.73504999999999 68.96517999999999 69.40393999999999 67.02839999999999 68.93324 64.81393999999999 C 68.46254 62.599479999999986 68.89081999999999 60.28871999999999 70.12384 58.39002999999999 C 72.69149 54.436199999999985 77.97819 53.31247999999999 81.93202 55.88011999999999 z M 60.1473 59.90063 C 65.87047 63.6173 67.49706 71.26981 63.780390000000004 76.99298 C 61.995580000000004 79.74135 59.19209000000001 81.66813 55.986650000000004 82.34946000000001 C 52.781220000000005 83.03080000000001 49.436400000000006 82.41088 46.68804 80.62607000000001 C 43.93967 78.84126000000002 42.01289 76.03777000000001 41.33156 72.83233000000001 C 40.650220000000004 69.6269 41.270140000000005 66.28208000000001 43.054950000000005 63.53372000000002 C 46.771620000000006 57.81055000000002 54.424130000000005 56.18396000000001 60.1473 59.900630000000014 z M 44.90818 84.23909 C 51.6683 88.62916 53.58961 97.66819000000001 49.19953 104.42831000000001 C 47.09134 107.67464000000001 43.779900000000005 109.95052000000001 39.99369 110.75531000000001 C 36.20747 111.56009 32.256640000000004 110.82785000000001 29.01031 108.71966 C 25.76398 106.61147000000001 23.4881 103.30003 22.68331 99.51382000000001 C 21.878529999999998 95.72760000000001 22.61077 91.77677000000001 24.71896 88.53044000000001 C 29.109029999999997 81.77032000000001 38.14806 79.84901 44.90818 84.23909000000002 z M 45.99588 116.56096 C 53.84101 121.65563999999999 56.070679999999996 132.14543 50.975989999999996 139.99056 C 48.52943 143.75793 44.686499999999995 146.39909 40.29259999999999 147.33305 C 35.89869999999999 148.267 31.313739999999996 147.41724 27.546379999999992 144.97068 C 23.779009999999992 142.52411999999998 21.137849999999993 138.68119 20.203889999999994 134.28728999999998 C 19.269939999999995 129.89338999999998 20.119699999999995 125.30842999999999 22.566259999999993 121.54106999999999 C 27.660939999999993 113.69594 38.150729999999996 111.46627 45.99585999999999 116.56096 z M 122.3391 67.66527 C 123.93709 68.70302000000001 124.39125 70.83970000000001 123.35351 72.43769 C 122.85517 73.20507 122.07239 73.74306 121.17739 73.93329 C 120.28239 74.12353 119.34847 73.95044 118.58109 73.45209 C 117.81371 72.95375 117.27572 72.17097 117.08549000000001 71.27597 C 116.89525 70.38097 117.06834 69.44705 117.56669000000001 68.67967 C 118.60444000000001 67.08168 120.74112000000001 66.62752 122.33911 67.66526 z M 129.92907 189.28645 C 129.21667 188.26904 128.93762 187.01031 129.15329 185.78714 C 129.36897 184.56398 130.0617 183.4766 131.07911 182.7642 C 132.09652 182.0518 133.35524999999998 181.77275 134.57842 181.98842 C 135.80158 182.20409999999998 136.88896 182.89683 137.60136 183.91423999999998 C 139.08485 186.03288999999998 138.56996 188.95298999999997 136.45131 190.43648 C 134.33266 191.91996999999998 131.41256 191.40508 129.92907 189.28643 z M 123.85928 189.6708 C 124.65044999999999 193.09775000000002 122.51374 196.5172 119.08679 197.30838 C 117.44111 197.68832 115.7119 197.39895 114.27958 196.50393 C 112.84725 195.60891 111.82914 194.18157 111.44919999999999 192.53589 C 111.06925999999999 190.89021 111.35862999999999 189.161 112.25365 187.72868 C 113.14867 186.29635 114.57601 185.27824 116.22169 184.8983 C 119.64864 184.10713 123.06809 186.24384 123.85927 189.67079 z M 89.10673 194.64421 C 87.80819 192.78970999999999 87.29954 190.4953 87.69266 188.26576999999997 C 88.08579 186.03623 89.34849 184.05417999999997 91.203 182.75562999999997 C 93.0575 181.45708999999997 95.35191 180.94843999999998 97.58144 181.34155999999996 C 99.81098 181.73468999999997 101.79303 182.99738999999997 103.09158 184.85189999999997 C 105.79565 188.71370999999996 104.85710999999999 194.03640999999996 100.99529999999999 196.74047999999996 C 97.13348999999998 199.44454999999996 91.81078999999998 198.50600999999997 89.10671999999998 194.64419999999996 z M 60.9401 187.83403 C 59.06046 185.14963 58.32419 181.82848 58.89324 178.60123000000002 C 59.462289999999996 175.37396 61.29006 172.50494 63.97446 170.6253 C 66.65886 168.74566000000002 69.98001000000001 168.00939 73.20726 168.57844 C 76.43453000000001 169.14749 79.30355 170.97526 81.18319000000001 173.65966 C 85.09733000000001 179.24964 83.73880000000001 186.95425 78.14883 190.86839 C 72.55885 194.78253 64.85424 193.424 60.9401 187.83403 z M 34.93241 171.65409 C 32.71221 168.48332 31.842529999999996 164.56044 32.514689999999995 160.74844 C 33.18684999999999 156.93643999999998 35.34578 153.54758999999999 38.51656 151.32738999999998 C 41.687329999999996 149.10718999999997 45.610209999999995 148.23751 49.42221 148.90966999999998 C 53.23421 149.58182999999997 56.62306 151.74075999999997 58.84326 154.91153999999997 C 63.46658 161.51432999999997 61.86191 170.61490999999998 55.25912 175.23823 C 48.656330000000004 179.86155 39.55575 178.25688 34.932430000000004 171.65409 z M 143.64583 183.72569 C 143.12100999999998 182.97617 142.91543 182.04886 143.07432 181.14775999999998 C 143.23321 180.24665999999996 143.74355 179.44558999999998 144.49307 178.92076999999998 C 145.24258999999998 178.39594999999997 146.16989999999998 178.19036999999997 147.071 178.34926 C 147.9721 178.50815 148.77317 179.01848999999999 149.29799 179.76800999999998 C 150.39087 181.32880999999998 150.01155 183.48003999999997 148.45075 184.57291999999998 C 146.88995 185.6658 144.73872 185.28647999999998 143.64584 183.72567999999998 z M 59.71711 84.9434 C 61.12576 82.77427 64.02611999999999 82.15778 66.19525 83.56643 C 67.2369 84.24289 67.96717 85.30543 68.22540000000001 86.52032 C 68.48363 87.73521 68.24868000000001 89.00291 67.57222 90.04457 C 66.89576 91.08622 65.83322 91.81648999999999 64.61833 92.07472 C 63.40344 92.33295 62.13574 92.098 61.09408 91.42154 C 58.924949999999995 90.01289 58.30846 87.11252999999999 59.71711 84.9434 z M 54.73358 97.64195 C 56.64912 94.69227 60.593160000000005 93.85394 63.542840000000005 95.76947999999999 C 64.95933000000001 96.68936 65.95238 98.13425999999998 66.30354 99.78631999999999 C 66.65469999999999 101.43838 66.33519 103.16226999999999 65.41531 104.57875999999999 C 64.49543 105.99524999999998 63.05053 106.98829999999998 61.39847 107.33945999999999 C 59.746410000000004 107.69061999999998 58.02252 107.37110999999999 56.606030000000004 106.45123 C 53.65635 104.53568999999999 52.818020000000004 100.59165 54.733560000000004 97.64197 z M 56.43729 117.09544 C 59.00494 113.14161 64.29164 112.01789 68.24547 114.58552999999999 C 70.14417 115.81855999999999 71.47528 117.75533999999999 71.94597999999999 119.96979999999999 C 72.41667999999999 122.18426 71.9884 124.49502 70.75537999999999 126.39371 C 69.52234999999999 128.29241 67.58556999999999 129.62351999999998 65.37110999999999 130.09422 C 63.156649999999985 130.56492 60.84588999999999 130.13664 58.94719999999999 128.90362000000002 C 54.993369999999985 126.33597000000002 53.869649999999986 121.04927000000002 56.43728999999999 117.09544000000002 z M 60.87019 138.88016 C 64.58686 133.15698999999998 72.23937000000001 131.5304 77.96254 135.24706999999998 C 80.71091 137.03187999999997 82.63769 139.83536999999998 83.31902000000001 143.04080999999996 C 84.00036000000001 146.24623999999997 83.38044000000001 149.59105999999997 81.59563000000001 152.33941999999996 C 79.81082000000002 155.08778999999996 77.00733000000001 157.01456999999996 73.80189000000001 157.69589999999997 C 70.59646000000001 158.37723999999997 67.25164000000001 157.75731999999996 64.50328000000002 155.97250999999997 C 58.78011000000002 152.25583999999998 57.153520000000015 144.60332999999997 60.870190000000015 138.88015999999996 z M 85.16638 153.09517 C 89.55645 146.33505 98.59548000000001 144.41374 105.35560000000001 148.80382 C 108.60193000000001 150.91201 110.87781000000001 154.22345 111.68260000000001 158.00966 C 112.48738 161.79588 111.75514000000001 165.74671 109.64695 168.99304 C 107.53876000000001 172.23937 104.22732 174.51525 100.44111000000001 175.32004 C 96.65489000000001 176.12482 92.70406000000001 175.39258 89.45773000000001 173.28439 C 82.69761000000001 168.89432 80.7763 159.85529 85.16638000000002 153.09517 z M 118.79177 153.52936 C 123.88645 145.68422999999999 134.37624 143.45456 142.22137 148.54925 C 145.98874 150.99581 148.62990000000002 154.83874 149.56386 159.23264 C 150.49781000000002 163.62654 149.64805 168.2115 147.20149 171.97886 C 144.75493 175.74623 140.912 178.38739 136.5181 179.32135 C 132.1242 180.2553 127.53924 179.40554 123.77188000000001 176.95898 C 115.92675000000001 171.8643 113.69708000000001 161.37451 118.79177000000001 153.52938 z M 67.22244 75.68837 C 68.26019000000001 74.09038000000001 70.39687 73.63622000000001 71.99486 74.67396000000001 C 72.76224 75.1723 73.30023 75.95508000000001 73.49046 76.85008 C 73.6807 77.74508 73.50761 78.679 73.00926 79.44638 C 72.51092 80.21376000000001 71.72814 80.75175 70.83314 80.94198 C 69.93814 81.13222 69.00422 80.95913 68.23684 80.46078 C 66.63885 79.42303 66.18469 77.28635 67.22243 75.68836 z M 191.16982 72.92733 C 190.15240999999997 73.63973 188.89368 73.91878 187.67050999999998 73.70311 C 186.44734999999997 73.48742999999999 185.35996999999998 72.79469999999999 184.64756999999997 71.77729 C 183.93516999999997 70.75988 183.65612 69.50115 183.87178999999998 68.27798 C 184.08746999999997 67.05482 184.78019999999998 65.96744 185.79760999999996 65.25504 C 187.91625999999997 63.77154999999999 190.83635999999996 64.28644 192.31984999999997 66.40508999999999 C 193.80333999999996 68.52373999999999 193.28844999999998 71.44384 191.16979999999998 72.92732999999998 z M 188.51583 79.09812 C 191.94278 78.30695 195.36222999999998 80.44366 196.15341 83.87061 C 196.53335 85.51629 196.24398000000002 87.24549999999999 195.34896 88.67782 C 194.45394000000002 90.11014999999999 193.0266 91.12826 191.38092 91.5082 C 189.73524 91.88814 188.00603 91.59877 186.57371 90.70375 C 185.14138 89.80873 184.12327000000002 88.38139 183.74333000000001 86.73571 C 182.95216000000002 83.30875999999999 185.08887000000001 79.88931 188.51582000000002 79.09813 z M 193.58905 111.37857 C 191.73454999999998 112.67711 189.44013999999999 113.18576 187.21060999999997 112.79263999999999 C 184.98107 112.39950999999999 182.99901999999997 111.13681 181.70046999999997 109.28229999999999 C 180.40192999999996 107.42779999999999 179.89327999999998 105.13338999999999 180.28639999999996 102.90386 C 180.67952999999997 100.67432 181.94222999999997 98.69227 183.79673999999997 97.39372 C 187.65854999999996 94.68965 192.98124999999996 95.62819 195.68531999999996 99.49000000000001 C 198.38938999999996 103.35181000000001 197.45084999999997 108.67451000000001 193.58903999999995 111.37858000000001 z M 188.29106 138.89071 C 185.60665999999998 140.77035 182.28551 141.50662000000003 179.05826 140.93757000000002 C 175.83098999999999 140.36852000000002 172.96196999999998 138.54075000000003 171.08232999999998 135.85635000000002 C 169.20269 133.17195 168.46641999999997 129.85080000000002 169.03546999999998 126.62355000000002 C 169.60451999999998 123.39628000000002 171.43228999999997 120.52726000000003 174.11668999999998 118.64762000000002 C 179.70666999999997 114.73348000000001 187.41127999999998 116.09201000000002 191.32541999999998 121.68198000000002 C 195.23955999999998 127.27196000000002 193.88102999999998 134.97657000000004 188.29106 138.89071 z M 173.5824 164.81931 C 170.41163 167.03951 166.48875 167.90919 162.67675 167.23703 C 158.86475 166.56487 155.4759 164.40594000000002 153.2557 161.23516 C 151.03549999999998 158.06439 150.16582 154.14151 150.83798 150.32951 C 151.51013999999998 146.51751 153.66906999999998 143.12866 156.83984999999998 140.90846 C 163.44263999999998 136.28513999999998 172.54322 137.88980999999998 177.16654 144.49259999999998 C 181.78986 151.09538999999998 180.18519 160.19597 173.5824 164.81928999999997 z M 186.59517 60.36397 C 185.84565 60.88879 184.91834 61.094370000000005 184.01724 60.93548 C 183.11613999999997 60.77659 182.31507 60.26625 181.79025 59.516729999999995 C 181.26542999999998 58.76721 181.05984999999998 57.83989999999999 181.21874 56.93879999999999 C 181.37763 56.037699999999994 181.88797 55.23662999999999 182.63748999999999 54.71180999999999 C 184.19829 53.61892999999999 186.34951999999998 53.99824999999999 187.4424 55.55904999999999 C 188.53528 57.11984999999999 188.15596 59.27107999999999 186.59516 60.36395999999999 z M 86.13157 138.74327 C 83.96244 137.33462 83.34595 134.43426 84.7546 132.26513 C 85.43106 131.22348 86.4936 130.49321 87.70849 130.23498 C 88.92338 129.97675 90.19108 130.2117 91.23273999999999 130.88816 C 92.27439 131.56462 93.00465999999999 132.62716 93.26289 133.84205 C 93.52112 135.05694 93.28617 136.32464 92.60970999999999 137.3663 C 91.20106 139.53543 88.30069999999999 140.15192 86.13157 138.74327 z M 98.83012 143.7268 C 95.88044 141.81126 95.04211 137.86722 96.95764999999999 134.91754 C 97.87753 133.50105 99.32242999999998 132.508 100.97448999999999 132.15684 C 102.62655 131.80568 104.35043999999999 132.12518999999998 105.76692999999999 133.04506999999998 C 107.18341999999998 133.96495 108.17647 135.40984999999998 108.52762999999999 137.06190999999998 C 108.87878999999998 138.71397 108.55927999999999 140.43785999999997 107.6394 141.85434999999998 C 105.72386 144.80402999999998 101.77982 145.64236 98.83014 143.72681999999998 z M 115.28361 144.02309 C 111.32978 141.45544 110.20606 136.16873999999999 112.77369999999999 132.21491 C 114.00672999999999 130.31621 115.94350999999999 128.98510000000002 118.15796999999999 128.5144 C 120.37243 128.0437 122.68319 128.47198 124.58188 129.70499999999998 C 126.48058 130.93803 127.81169 132.87481 128.28239 135.08926999999997 C 128.75309 137.30372999999997 128.32480999999999 139.61448999999996 127.09178999999999 141.51317999999998 C 124.52413999999999 145.46701 119.23743999999999 146.59072999999998 115.28360999999998 144.02308999999997 z M 137.86102 141.12854 C 132.13785 137.41187 130.51126 129.75936 134.22793 124.03618999999999 C 136.01273999999998 121.28782 138.81623 119.36103999999999 142.02166999999997 118.67970999999999 C 145.22709999999998 117.99836999999998 148.57191999999998 118.61828999999999 151.32027999999997 120.40309999999998 C 154.06864999999996 122.18790999999997 155.99542999999997 124.99139999999998 156.67675999999997 128.19683999999998 C 157.35809999999998 131.40227 156.73817999999997 134.74709 154.95336999999998 137.49544999999998 C 151.23669999999998 143.21862 143.58418999999998 144.84520999999998 137.86101999999997 141.12854 z M 153.55219 117.42504 C 146.79207 113.03497 144.87076 103.99593999999999 149.26084 97.23581999999999 C 151.36903 93.98948999999999 154.68047 91.71360999999999 158.46668 90.90881999999999 C 162.2529 90.10404 166.20373 90.83627999999999 169.45006 92.94447 C 172.69639 95.05265999999999 174.97227 98.3641 175.77706 102.15030999999999 C 176.58184 105.93652999999999 175.8496 109.88735999999999 173.74141 113.13368999999999 C 169.35134 119.89380999999999 160.31231 121.81512 153.55219 117.42503999999998 z M 155.98639 85.33127 C 148.14126 80.23659 145.91159 69.74680000000001 151.00628 61.90167 C 153.45284 58.1343 157.29577 55.493140000000004 161.68967 54.559180000000005 C 166.08357 53.62523 170.66853 54.474990000000005 174.43589 56.92155 C 178.20326 59.36811 180.84442 63.211040000000004 181.77838 67.60494 C 182.71233 71.99884 181.86257 76.5838 179.41601 80.35116 C 174.32133 88.19628999999999 163.83154 90.42595999999999 155.98641 85.33126999999999 z M 77.87654 132.23794 C 76.27855000000001 131.2002 75.82439000000001 129.06351 76.86213000000001 127.46552000000001 C 77.36047 126.69814000000001 78.14325000000001 126.16015000000002 79.03825 125.96991000000001 C 79.93325 125.77967000000001 80.86717 125.95276000000001 81.63455 126.45111000000001 C 82.40193000000001 126.94945000000001 82.93992 127.73223000000002 83.13016 128.62723000000003 C 83.3204 129.52223000000004 83.14731 130.45615000000004 82.64896 131.22353000000004 C 81.61122 132.82152000000005 79.47453 133.27568000000005 77.87654 132.23794000000004 z M 73.4845 6.24543 C 74.1969 7.26284 74.47595 8.52157 74.26028 9.74474 C 74.04459999999999 10.9679 73.35186999999999 12.05528 72.33445999999999 12.76768 C 71.31705 13.480080000000001 70.05832 13.75913 68.83515 13.54346 C 67.61198999999999 13.327779999999999 66.52461 12.63505 65.81221 11.61764 C 64.32871999999999 9.49899 64.84361 6.5788899999999995 66.96225999999999 5.0954 C 69.08090999999999 3.61191 72.00100999999998 4.126799999999999 73.48449999999998 6.24545 z M 79.868 9.08708 C 79.07683 5.6601300000000005 81.21354 2.2406800000000002 84.64049 1.4495000000000005 C 86.28617 1.0695600000000005 88.01538 1.3589300000000004 89.4477 2.2539500000000006 C 90.88002999999999 3.1489700000000007 91.89814 4.576310000000001 92.27808 6.22199 C 92.65802000000001 7.86767 92.36865 9.59688 91.47363 11.0292 C 90.57861 12.46153 89.15127 13.47964 87.50559 13.85958 C 84.07864 14.650749999999999 80.65919 12.51404 79.86801 9.08709 z M 113.16386 3.64076 C 114.4624 5.49526 114.97105 7.78967 114.57793 10.019200000000001 C 114.1848 12.248740000000002 112.9221 14.230790000000002 111.06759 15.529340000000001 C 109.21309 16.82788 106.91868 17.33653 104.68915 16.94341 C 102.45961 16.55028 100.47756 15.28758 99.17901 13.43307 C 96.47494 9.57126 97.41348 4.248560000000001 101.27529000000001 1.5444900000000015 C 105.13710000000002 -1.1595799999999987 110.45980000000002 -0.22103999999999857 113.16387000000002 3.6407700000000016 z M 141.35778 11.52564 C 143.23742 14.21004 143.97369 17.53119 143.40464 20.75844 C 142.83559 23.98571 141.00782 26.85473 138.32342 28.73437 C 135.63902 30.614009999999997 132.31787 31.350279999999998 129.09062 30.781229999999997 C 125.86335 30.212179999999996 122.99433 28.384409999999995 121.11469 25.70001 C 117.20054999999999 20.11003 118.55908 12.40542 124.14905 8.49128 C 129.73903 4.57714 137.44364000000002 5.93567 141.35778 11.52564 z M 167.79788 27.76151 C 170.01808 30.932280000000002 170.88776 34.85516 170.2156 38.66716 C 169.54344 42.47916 167.38451 45.868010000000005 164.21373 48.088210000000004 C 161.04296 50.30841 157.12008 51.178090000000005 153.30808 50.505930000000006 C 149.49607999999998 49.83377000000001 146.10723 47.67484 143.88702999999998 44.50406000000001 C 139.26370999999997 37.90127000000001 140.86837999999997 28.80069000000001 147.47116999999997 24.17737000000001 C 154.07395999999997 19.55405000000001 163.17453999999998 21.15872000000001 167.79785999999996 27.761510000000012 z M 58.45106 12.45397 C 58.97588 13.20349 59.18146 14.1308 59.02257 15.0319 C 58.86368 15.933 58.35334 16.73407 57.60382 17.25889 C 56.8543 17.78371 55.926989999999996 17.98929 55.02589 17.8304 C 54.12479 17.67151 53.323719999999994 17.161170000000002 52.798899999999996 16.41165 C 51.706019999999995 14.850850000000001 52.085339999999995 12.699620000000001 53.646139999999995 11.606740000000002 C 55.206939999999996 10.513860000000001 57.358169999999994 10.893180000000003 58.451049999999995 12.453980000000001 z" stroke-linecap="round" />
</g>
<g transform="matrix(0.2861854367 0 0 0.2861854367 251.9313212346 187.1560953955)" id="JvBwsVyfmoosqbkDkr2QD"  >
<path style="stroke: rgb(0,0,0); stroke-width: 6; stroke-dasharray: none; stroke-linecap: butt; stroke-dashoffset: 0; stroke-linejoin: miter; stroke-miterlimit: 4; fill: none; fill-rule: nonzero; opacity: 1;"  transform=" translate(0, 0)" d="M 0 -95.28774 C 52.59883 -95.28774 95.28774 -52.59883 95.28774 0 C 95.28774 52.59883 52.59883 95.28774 0 95.28774 C -52.59883 95.28774 -95.28774 52.59883 -95.28774 0 C -95.28774 -52.59883 -52.59883 -95.28774 0 -95.28774 z" stroke-linecap="round" />
</g>
</svg>
